<svg width="50" height="50" xmlns="http://www.w3.org/2000/svg"><defs><linearGradient x1="63.228%" y1="-23.583%" x2="24.916%" y2="142.519%" id="a"><stop stop-color="#56749D" offset="0%"/><stop stop-color="#25395B" offset="100%"/></linearGradient><linearGradient x1="63.009%" y1="9.117%" x2="38.277%" y2="70.654%" id="b"><stop stop-color="#2E4469" offset="0%"/><stop stop-color="#6F90BC" offset="100%"/></linearGradient><linearGradient x1="20.279%" y1="28.715%" x2="77.708%" y2="66.909%" id="c"><stop stop-color="#5B79A2" offset="0%"/><stop stop-color="#2E4469" offset="100%"/></linearGradient><linearGradient x1="0%" y1="50%" x2="100%" y2="50%" id="d"><stop stop-color="#6F90BC" offset="0%"/><stop stop-color="#2E4469" offset="100%"/></linearGradient><linearGradient x1="57.404%" y1="-23.583%" x2="35.959%" y2="142.519%" id="e"><stop stop-color="#56749D" offset="0%"/><stop stop-color="#25395B" offset="100%"/></linearGradient><linearGradient x1="58.782%" y1="-23.583%" x2="33.347%" y2="142.519%" id="f"><stop stop-color="#56749D" offset="0%"/><stop stop-color="#25395B" offset="100%"/></linearGradient><linearGradient x1="20.279%" y1="36.377%" x2="77.708%" y2="60.822%" id="g"><stop stop-color="#5B79A2" offset="0%"/><stop stop-color="#2E4469" offset="100%"/></linearGradient><linearGradient x1="0%" y1="50%" x2="100%" y2="50%" id="h"><stop stop-color="#6F90BC" offset="0%"/><stop stop-color="#2E4469" offset="100%"/></linearGradient></defs><g transform="translate(9.5 6)" fill="none" fill-rule="evenodd"><path d="M27.597 19.755c1.847 0 2.611 3.846 2.725 4.843.903 7.907-3.921 9.94-10.038 9.402" stroke="url(#a)" stroke-width=".786"/><rect fill="url(#b)" transform="rotate(90 13.5 32.34)" x="7" y="24.339" width="13" height="16" rx="2.58"/><rect fill="url(#b)" transform="rotate(90 17.5 20)" x="11" y="12" width="13" height="16" rx="2.58"/><rect fill="url(#b)" transform="rotate(90 14 7)" x="7.5" y="-1" width="13" height="16" rx="2.58"/><g transform="translate(7 4.5)"><rect fill="#2E4469" transform="rotate(90 7 2.5)" x="5" y="-4" width="4" height="13" rx="1"/><rect fill="#53B5FF" transform="rotate(90 4.5 2.5)" x="4" y="-1" width="1" height="7" rx=".5"/><rect fill="#53B5FF" opacity=".481" transform="rotate(90 11 2.5)" x="10.5" y=".5" width="1" height="4" rx=".5"/></g><g transform="translate(10.5 17)"><rect fill="#2E4469" transform="rotate(90 7 2.5)" x="5" y="-4" width="4" height="13" rx="1"/><rect fill="#53B5FF" transform="rotate(90 6.5 2.5)" x="6" y="-3" width="1" height="11" rx=".5"/></g><path d="M19.982 31.5v2a1 1 0 01-1 1H7.518a1 1 0 01-1-1v-2a1 1 0 011-1h11.464a1 1 0 011 1z" fill="#2E4469"/><path d="M11.036 32.5a.5.5 0 01-.5.5h-3a.5.5 0 010-1h3a.5.5 0 01.5.5z" fill="#53B5FF"/><path d="M14.5 32.5a.5.5 0 01-.5.5h-2a.5.5 0 010-1h2a.5.5 0 01.5.5zm4.5 0a.5.5 0 01-.5.5h-3a.5.5 0 110-1h3a.5.5 0 01.5.5z" fill="#53B5FF" opacity=".305"/><g transform="rotate(90 .5 6)"><rect fill="url(#c)" x=".786" y=".524" width="2.097" height="1.572" rx=".786"/><rect fill="url(#d)" width="3.669" height="1.048" rx=".524"/></g><g transform="rotate(-90 23.5 -2)"><rect fill="url(#c)" x=".786" y=".524" width="2.097" height="1.572" rx=".786"/><rect fill="url(#d)" width="3.669" height="1.048" rx=".524"/></g><path d="M7.504 13.335C2 13.335-3.457 26.09 5.5 26.09" stroke="url(#e)" stroke-width=".786" transform="translate(0 7)"/><path d="M4.403.335c-5.503 0-5.604 12.42 3.353 12.42" stroke="url(#f)" stroke-width=".786" transform="translate(0 7)"/><g transform="rotate(90 -4 14)"><rect fill="url(#g)" x=".983" y="1.524" width="2.621" height="1.572" rx=".786"/><rect fill="url(#h)" y=".048" width="4.586" height="2" rx="1"/></g></g></svg>