<svg width="50" height="50" xmlns="http://www.w3.org/2000/svg"><g fill="none"><path d="M40.866 35.428L25.39 44.18v-6.818l9.642-5.303 5.833 3.368zm1.058-.959V16.163l-5.662 3.268v11.766l5.662 3.272zm-33.365.959l15.474 8.753v-6.818l-9.641-5.303-5.833 3.368zM7.5 34.469V16.163l5.663 3.268v11.766L7.5 34.47zm.663-19.49L24.033 6v6.592l-10.167 5.592-.078.045-5.625-3.25zm33.099 0L25.392 6v6.592l10.166 5.592.078.045 5.626-3.25z" fill="#8ED6FB"/><path d="M24.033 35.813l-9.512-5.23V20.22l9.512 5.492v10.1m1.358 0l9.512-5.23V20.22l-9.512 5.492v10.1m-10.226-16.79l9.549-5.252 9.549 5.252-9.549 5.514-9.549-5.514" fill="#1C78C0"/></g></svg>